<svg id="Capa_1" data-name="Capa 1" xmlns="http://www.w3.org/2000/svg" viewBox="0 0 499.26 177.5"><defs><style>.cls-1{fill:#868686;}.cls-2{fill:#fab800;}</style></defs><title>logo-03</title><rect width="499.26" height="177.5"/><path class="cls-1" d="M59.09,127.36v-16H70.28v1.7H60.89v5.2h9.19v1.6H60.89v5.79h9.39v1.7Z" transform="translate(-0.1 0)"/><path class="cls-1" d="M81.58,122.16h1.8v.3a10.53,10.53,0,0,0,.2,2.1,2.14,2.14,0,0,0,.7.9,2,2,0,0,0,1.2.3h3.3a6,6,0,0,0,2.1-.2,3.16,3.16,0,0,0,1.2-.5,3.66,3.66,0,0,0,.3-.8c0-.3.1-.8.1-1.4a4.72,4.72,0,0,0-.4-2.19,1.67,1.67,0,0,0-1.4-.5l-4.9-.4a4.8,4.8,0,0,1-3.1-1.1,4.5,4.5,0,0,1-.9-3.2,6.8,6.8,0,0,1,.3-2.2,3.35,3.35,0,0,1,.9-1.4,2.52,2.52,0,0,1,1.4-.6l3-.2H88l3.5.2a5.56,5.56,0,0,1,1.7.9,1.73,1.73,0,0,1,.6,1.1,4.13,4.13,0,0,1,.3,1.7.74.74,0,0,1-.1.5v.3h-1.7v-.3c0-.6-.1-1-.1-1.3a.84.84,0,0,0-.4-.7,3.53,3.53,0,0,0-1.2-.5h-3.2a6.35,6.35,0,0,0-3.1.5,3.2,3.2,0,0,0-.6,2.3,2.6,2.6,0,0,0,.4,1.8,2.23,2.23,0,0,0,1.6.7l5,.4a4.23,4.23,0,0,1,2.8,1.1,4.67,4.67,0,0,1,.8,3,12.82,12.82,0,0,1-.2,2.4,3.89,3.89,0,0,1-.7,1.3,3.5,3.5,0,0,1-1.6.9,13.6,13.6,0,0,1-3.6.3h-.8l-3.1-.2a5,5,0,0,1-1.5-.8,3.35,3.35,0,0,1-.9-1.4,6.8,6.8,0,0,1-.3-2.2Z" transform="translate(-0.1 0)"/><path class="cls-1" d="M106.57,127.36v-16h6.7a6.28,6.28,0,0,1,3.7.8,3.29,3.29,0,0,1,1,2.8v2.5a3.53,3.53,0,0,1-1,2.9,6.43,6.43,0,0,1-3.7.8h-4.9v6.19Zm9.6-9.89v-2.4a2.2,2.2,0,0,0-.5-1.6,4.51,4.51,0,0,0-2.4-.4h-4.9v6.4h4.9a3.77,3.77,0,0,0,2.3-.5A1.59,1.59,0,0,0,116.17,117.47Z" transform="translate(-0.1 0)"/><path class="cls-1" d="M126,127.36l5.9-16h2.9l5.89,16h-1.8l-1.5-4.1h-8.09l-1.5,4.1Zm3.9-5.7h6.89l-3.19-8.59H133Z" transform="translate(-0.1 0)"/><path class="cls-1" d="M151.16,116.67c0-2.1.4-3.5,1.2-4.3s2.2-1.2,4.1-1.2h1.9c2,0,3.4.3,4.2,1a5,5,0,0,1,1.1,3.6v.6h-1.8V116a3.43,3.43,0,0,0-.7-2.5,5,5,0,0,0-2.9-.6h-3.4l-1.1.6a3.79,3.79,0,0,0-.6,1.1,13.74,13.74,0,0,0-.1,2.4v4.59a14.74,14.74,0,0,0,.1,2.4,2.28,2.28,0,0,0,.6,1,2.38,2.38,0,0,0,1.1.6l2.2.2h1.2c1.5,0,2.4-.2,2.9-.7a3.8,3.8,0,0,0,.8-2.7c0-.2,0-.3-.1-.4v-.3h1.8v1c0,1.8-.3,3-1.1,3.7a6.35,6.35,0,0,1-4.2,1.1h-1.9c-1.9,0-3.3-.4-4.1-1.2s-1.2-2.3-1.2-4.3Z" transform="translate(-0.1 0)"/><path class="cls-1" d="M175.55,127.36v-16h1.8v16Z" transform="translate(-0.1 0)"/><path class="cls-1" d="M189.55,116.67c0-2.1.5-3.5,1.3-4.3s2.3-1.2,4.5-1.2h2q3.3,0,4.5,1.2c.9.8,1.3,2.2,1.3,4.3v5.39a6.11,6.11,0,0,1-1.3,4.3q-1.2,1.2-4.5,1.2h-2q-3.3,0-4.5-1.2a6.06,6.06,0,0,1-1.3-4.3Zm7.3-3.8h-3.4a3.54,3.54,0,0,0-1.2.7,2.22,2.22,0,0,0-.7,1.1,12.62,12.62,0,0,0-.1,2.3v4.59a12.62,12.62,0,0,0,.1,2.3,3,3,0,0,0,.7,1.1,2.22,2.22,0,0,0,1.2.6l2.4.2h1l2.4-.2a2.67,2.67,0,0,0,1.2-.6,2,2,0,0,0,.6-1.1,6.57,6.57,0,0,0,.2-2.3V117a7.73,7.73,0,0,0-.2-2.4,2.38,2.38,0,0,0-.6-1.1l-1.2-.6Z" transform="translate(-0.1 0)"/><path class="cls-1" d="M214.84,122.16h1.8v.3a11.32,11.32,0,0,0,.2,2.1,2.14,2.14,0,0,0,.7.9,2,2,0,0,0,1.2.3h3.4a5.94,5.94,0,0,0,2.1-.2,2.68,2.68,0,0,0,1.1-.5,3.66,3.66,0,0,0,.3-.8c0-.3.1-.8.1-1.4a3.63,3.63,0,0,0-.4-2.19,1.67,1.67,0,0,0-1.4-.5l-4.9-.4a4.8,4.8,0,0,1-3.1-1.1,5.17,5.17,0,0,1-.8-3.2,12.42,12.42,0,0,1,.2-2.2,3.35,3.35,0,0,1,.9-1.4,2.92,2.92,0,0,1,1.4-.6l3.1-.2h.5l3.5.2a4.5,4.5,0,0,1,1.7.9,2.29,2.29,0,0,1,.7,1.1,7.39,7.39,0,0,1,.2,1.7v.8h-1.8v-.3c0-.6-.1-1-.1-1.3a.84.84,0,0,0-.4-.7,1.55,1.55,0,0,0-1.1-.5h-3.3a6.35,6.35,0,0,0-3.1.5,3.2,3.2,0,0,0-.6,2.3,2.6,2.6,0,0,0,.4,1.8,2.25,2.25,0,0,0,1.6.7l5,.4a4,4,0,0,1,2.8,1.1,4.67,4.67,0,0,1,.8,3,12.82,12.82,0,0,1-.2,2.4,3.89,3.89,0,0,1-.7,1.3,3.45,3.45,0,0,1-1.6.9,12.89,12.89,0,0,1-3.5.3h-.8l-3.2-.2a5.17,5.17,0,0,1-1.5-.8,3.35,3.35,0,0,1-.9-1.4,6.8,6.8,0,0,1-.3-2.2Z" transform="translate(-0.1 0)"/><path class="cls-2" d="M239.44,122.16h1.79v.3a6.44,6.44,0,0,0,.2,2.1,1.62,1.62,0,0,0,.7.9,1.66,1.66,0,0,0,1.2.3h3.3a5.94,5.94,0,0,0,2.1-.2,2.14,2.14,0,0,0,1.1-.5,1,1,0,0,0,.3-.8,8.73,8.73,0,0,0-.2-3.59,2,2,0,0,0-1.5-.5l-4.9-.4a4.26,4.26,0,0,1-3-1.1,4.54,4.54,0,0,1-.89-3.2,6.8,6.8,0,0,1,.3-2.2,3.24,3.24,0,0,1,.89-1.4,2.55,2.55,0,0,1,1.3-.6l3.1-.2h.6l3.4.2a3.79,3.79,0,0,1,1.7.9,2.22,2.22,0,0,1,.7,1.1,6.88,6.88,0,0,1,.2,1.7v.8H250v-.3a4.35,4.35,0,0,0-.1-1.3,1.47,1.47,0,0,0-.3-.7c-.2-.3-.6-.4-1.2-.5h-3.2a6,6,0,0,0-3.1.5c-.5.4-.7,1.1-.7,2.3a3.54,3.54,0,0,0,.4,1.8,2.47,2.47,0,0,0,1.6.7l5.1.4a3.75,3.75,0,0,1,2.7,1.1,4.16,4.16,0,0,1,.8,3,7.44,7.44,0,0,1-.2,2.4,2.1,2.1,0,0,1-.7,1.3,3.05,3.05,0,0,1-1.5.9,14.49,14.49,0,0,1-3.6.3h-.8l-3.1-.2a5.17,5.17,0,0,1-1.5-.8,3.24,3.24,0,0,1-.89-1.4,6.8,6.8,0,0,1-.3-2.2Z" transform="translate(-0.1 0)"/><path class="cls-2" d="M264.43,127.36v-16h1.7v16Z" transform="translate(-0.1 0)"/><path class="cls-2" d="M278.92,127.36v-16h2.7l8.7,14.29V111.37H292v16h-2.7l-8.7-14.29v14.29Z" transform="translate(-0.1 0)"/><path class="cls-1" d="M304.82,127.36v-16h1.7v14.29h9.09v1.7Z" transform="translate(-0.1 0)"/><path class="cls-1" d="M327.31,110h-1l2.3-3.7h1.6Zm-.5,17.39v-16h1.8v16Z" transform="translate(-0.1 0)"/><path class="cls-1" d="M341.31,127.36v-16h2.9l5.49,14.19,5.4-14.19H358v16h-1.7V112.87l-5.5,14.49h-2.2l-5.49-14.49v14.49Z" transform="translate(-0.1 0)"/><path class="cls-1" d="M370.8,127.36v-16h1.7v16Z" transform="translate(-0.1 0)"/><path class="cls-1" d="M383.09,113.07v-1.7h12v1.7H390v14.29h-1.8V113.07Z" transform="translate(-0.1 0)"/><path class="cls-1" d="M406.19,127.36v-16h11.19v1.7H408v5.2h9.09v1.6H408v5.79h9.39v1.7Z" transform="translate(-0.1 0)"/><path class="cls-1" d="M427.88,122.16h1.8v.3a6.18,6.18,0,0,0,.2,2.1,1.26,1.26,0,0,0,.7.9,1.66,1.66,0,0,0,1.2.3h3.3a6,6,0,0,0,2.1-.2,2.21,2.21,0,0,0,1.1-.5,3.66,3.66,0,0,0,.3-.8,5.48,5.48,0,0,0,.1-1.4,3.78,3.78,0,0,0-.4-2.19,1.67,1.67,0,0,0-1.4-.5l-4.9-.4a4.8,4.8,0,0,1-3.1-1.1,5.17,5.17,0,0,1-.8-3.2,6.8,6.8,0,0,1,.3-2.2,3.35,3.35,0,0,1,.9-1.4,2.21,2.21,0,0,1,1.3-.6l3.1-.2h.6l3.4.2a3.84,3.84,0,0,1,1.7.9,2.29,2.29,0,0,1,.7,1.1,7.39,7.39,0,0,1,.2,1.7v.8h-1.8v-.3a4.7,4.7,0,0,0-.1-1.3,1.47,1.47,0,0,0-.3-.7c-.2-.3-.6-.4-1.2-.5h-3.2a6,6,0,0,0-3.1.5c-.5.4-.7,1.1-.7,2.3a3.44,3.44,0,0,0,.4,1.8,2.23,2.23,0,0,0,1.6.7l5,.4a3.86,3.86,0,0,1,2.8,1.1,4.67,4.67,0,0,1,.8,3,12.82,12.82,0,0,1-.2,2.4,2.71,2.71,0,0,1-.7,1.3,3.79,3.79,0,0,1-1.5.9,14.53,14.53,0,0,1-3.6.3h-.8l-3.1-.2a5.71,5.71,0,0,1-1.6-.8,2.51,2.51,0,0,1-.8-1.4,6.8,6.8,0,0,1-.3-2.2Z" transform="translate(-0.1 0)"/><path class="cls-1" d="M301.52,52.78H353.4c4.6,0,8.9,2,12.6,6a12.46,12.46,0,0,1,2.6,7.1v35.69a.2.2,0,0,1-.2.2H353.1c-.2,0-.2-.1-.2-.2V73.18c0-4.3-1.9-7.1-5.6-8.4a7.51,7.51,0,0,0-2.4-.4h-28v37.19a.2.2,0,0,1-.2.2H301.52c-.2,0-.3-.1-.3-.2V53c.1-.1.1-.2.3-.2m-20.3,0h15.2c.2,0,.3.1.3.2v48.59c0,.1-.1.2-.3.2h-15.2a.2.2,0,0,1-.2-.2h0V53a.2.2,0,0,1,.2-.2Zm-78.07,0h15.69L239.74,77l20.79-24.2h15.69c.2,0,.2.1.2.2v48.59c0,.1,0,.2-.2.2H261c-.2,0-.3-.1-.3-.2V72.68L239.84,97h-.2l-21.1-24.29v28.89c0,.1,0,.2-.2.2H203.15c-.2,0-.2-.1-.2-.2V53a.2.2,0,0,1,.2-.2Zm-56.49,19.6v9.7c0,3.9,2.1,6.59,6.2,7.89l1.8.2h20.09c3.6,0,6.1-1.9,7.6-5.69a6.88,6.88,0,0,0,.3-2.2V73a8.19,8.19,0,0,0-5.8-8.4l-3-.2H154.66c-3.7,0-6.2,1.9-7.7,5.7A8.91,8.91,0,0,0,146.66,72.38Zm-.5-19.6h36.39a16.64,16.64,0,0,1,13.4,6.3,12.44,12.44,0,0,1,2.4,7.2V88.37c0,5-2.8,8.9-8.4,11.8a17,17,0,0,1-7.4,1.6h-36a16.67,16.67,0,0,1-13.29-6.5,11.29,11.29,0,0,1-2.2-6.7V66.18c0-5.2,3-9.3,9.19-12.2A20.25,20.25,0,0,1,146.16,52.78ZM74.78,64.38V90.17h28.09c3.6,0,6.1-1.9,7.6-5.59a9,9,0,0,0,.3-2.3v-9.9c0-3.6-1.8-6.1-5.4-7.6a9.47,9.47,0,0,0-2.6-.4ZM59.39,52.78H111a16.62,16.62,0,0,1,12.3,5.4,12,12,0,0,1,3.2,8V88.57c0,4.2-2.3,7.8-6.8,10.8a18,18,0,0,1-8.5,2.4H59.39c-.2,0-.2-.1-.2-.2V53C59.19,52.88,59.19,52.78,59.39,52.78Z" transform="translate(-0.1 0)"/><path class="cls-2" d="M388.29,52.78h36.39a16.64,16.64,0,0,1,13.4,6.3,12.44,12.44,0,0,1,2.4,7.2V88.37c0,5-2.8,8.9-8.4,11.8a17,17,0,0,1-7.4,1.6h-36a16.67,16.67,0,0,1-13.29-6.5,11.29,11.29,0,0,1-2.2-6.7V66.18c0-5.2,3-9.3,9.19-12.2a20.25,20.25,0,0,1,5.9-1.2m32.29-10.19h0a5.7,5.7,0,0,0-5.7-5.7H398.79a5.6,5.6,0,0,0-5.7,5.5v.2h0a5.6,5.6,0,0,0,5.6,5.6h16.19a5.7,5.7,0,0,0,5.7-5.6ZM388.79,72.38v9.7c0,3.9,2.1,6.59,6.2,7.89l1.8.2h20.09c3.6,0,6.1-1.9,7.6-5.69a6.88,6.88,0,0,0,.3-2.2V73a8.19,8.19,0,0,0-5.8-8.4l-3-.2H396.79c-3.7,0-6.2,1.9-7.7,5.7A8.91,8.91,0,0,0,388.79,72.38Z" transform="translate(-0.1 0)"/></svg>