<svg version="1.1" id="Layer_1" xmlns="http://www.w3.org/2000/svg" xmlns:xlink="http://www.w3.org/1999/xlink" x="0px" y="0px"
	 width="100%" viewBox="0 0 2318 642" enable-background="new 0 0 2318 642" xml:space="preserve">
<path fill="#000000" opacity="1.000000" stroke="none" 
	d="
M1561.000000,643.000000 
	C1040.666626,643.000000 520.833313,643.000000 1.000000,643.000000 
	C1.000000,429.000000 1.000000,215.000000 1.000000,1.000000 
	C773.666687,1.000000 1546.333374,1.000000 2319.000000,1.000000 
	C2319.000000,215.000000 2319.000000,429.000000 2319.000000,643.000000 
	C2066.500000,643.000000 1814.000000,643.000000 1561.000000,643.000000 
M1996.096069,469.527863 
	C1996.390869,469.629669 1996.685791,469.731506 1997.910522,469.978394 
	C2092.278809,469.985504 2186.646973,469.993134 2281.015137,469.992859 
	C2282.010010,469.992859 2283.004639,469.888824 2284.874512,469.977966 
	C2288.348877,470.648285 2288.021240,468.338287 2288.017090,466.102966 
	C2287.986084,449.103516 2287.839355,432.101471 2288.103760,415.106079 
	C2288.177490,410.361359 2286.927979,408.879486 2282.008057,408.892181 
	C2218.843750,409.055389 2155.678467,409.000000 2092.513672,409.000000 
	C2090.760742,409.000000 2089.007812,409.000000 2086.163330,409.000000 
	C2088.522705,405.851105 2090.306641,403.606628 2091.946045,401.261169 
	C2107.218262,379.410400 2122.507080,357.570984 2137.709717,335.671661 
	C2154.854492,310.974670 2171.868652,286.186707 2189.024902,261.497681 
	C2208.969971,232.795593 2229.016357,204.163742 2249.001709,175.489594 
	C2258.110107,162.421387 2266.895752,149.116547 2276.358887,136.311600 
	C2283.090332,127.203278 2288.846924,118.405029 2287.221436,106.081291 
	C2286.076416,97.399239 2287.010986,88.444321 2286.989014,79.611298 
	C2286.985352,78.169937 2286.835938,76.728935 2286.752441,75.262627 
	C2189.332520,75.262627 2092.249268,75.262627 1995.166626,75.262627 
	C1995.166626,76.683632 1995.166626,77.842003 1995.021484,79.927704 
	C1995.069824,98.288963 1995.118164,116.650215 1995.096191,135.528091 
	C1995.390991,135.629837 1995.685791,135.731583 1996.910522,135.978378 
	C2061.750244,135.985580 2126.590088,135.985016 2191.429932,136.040085 
	C2193.249268,136.041626 2195.068115,136.637375 2196.257324,137.229431 
	C2194.862305,139.036392 2193.389893,140.789246 2192.084229,142.658630 
	C2179.147705,161.180191 2166.208496,179.700012 2153.329102,198.261444 
	C2134.613770,225.233948 2116.021729,252.292084 2097.239746,279.218018 
	C2078.354736,306.291870 2059.269043,333.225891 2040.333252,360.264557 
	C2027.183472,379.041382 2014.093628,397.860657 2001.094360,416.741791 
	C1999.124634,419.602631 1997.793213,422.902924 1996.021606,426.927338 
	C1996.069946,440.955261 1996.118286,454.983154 1996.096069,469.527863 
M784.096008,469.527802 
	C784.390808,469.629669 784.685608,469.731506 785.910217,469.978394 
	C807.940002,469.930054 829.969849,469.881683 852.874695,469.977936 
	C856.897156,470.666534 855.982788,467.741791 855.985657,465.624390 
	C856.043030,422.763611 856.076599,379.902832 857.037231,337.005432 
	C862.031006,337.003632 867.025452,337.051453 872.018494,336.991760 
	C898.413879,336.676270 924.813538,336.536652 951.202209,335.924194 
	C966.941223,335.558899 982.028931,331.518433 996.590698,325.707977 
	C1011.857910,319.616089 1025.570679,311.039001 1037.662354,298.844208 
	C1038.813232,297.243500 1039.964111,295.642792 1041.575684,293.913696 
	C1041.871216,293.729034 1042.026855,293.462616 1042.671143,292.836670 
	C1047.792114,285.150146 1053.598633,277.826233 1057.894775,269.703461 
	C1067.573486,251.403549 1071.189209,231.345459 1071.847290,210.908875 
	C1072.399536,193.760376 1070.199707,176.780548 1065.001343,160.283936 
	C1056.133911,132.144272 1039.183350,110.224426 1013.953857,95.083405 
	C990.312378,80.895470 963.992676,75.463844 936.842407,75.157616 
	C887.567932,74.601830 838.282715,75.000000 789.001953,75.000008 
	C787.388611,75.000008 785.775208,75.000008 784.166626,75.000008 
	C784.166626,76.686005 784.166626,77.843193 784.021606,79.927711 
	C784.014465,208.627029 784.006958,337.326355 784.007141,466.025665 
	C784.007141,467.020813 784.111145,468.015961 784.096008,469.527802 
M1560.550537,413.944489 
	C1561.169922,412.991974 1561.759888,412.018768 1562.413452,411.090240 
	C1568.775269,402.051819 1575.898560,393.451782 1581.377319,383.907410 
	C1598.000000,354.949860 1605.087402,323.073761 1606.790039,290.131012 
	C1608.023193,266.271790 1607.130005,242.391800 1602.154297,218.751984 
	C1596.009155,189.555649 1585.172119,162.764359 1566.719849,139.004379 
	C1553.496216,121.977058 1537.321899,108.697861 1518.700317,98.416176 
	C1489.238770,82.149292 1457.023682,75.674355 1423.788208,75.173157 
	C1377.972412,74.482269 1332.138306,75.000000 1286.312134,75.000008 
	C1284.690308,75.000008 1283.068481,75.000008 1281.238037,75.000008 
	C1281.238037,206.821426 1281.238037,338.200897 1281.238037,470.000000 
	C1283.260864,470.000000 1285.052246,470.000000 1286.843506,470.000000 
	C1324.504395,470.000000 1362.165161,469.978699 1399.826050,470.008423 
	C1420.614258,470.024811 1441.351074,470.247162 1461.949219,466.145874 
	C1478.251953,462.899902 1494.037354,458.378357 1509.096436,451.407562 
	C1528.484009,442.433136 1545.338501,429.913086 1560.550537,413.944489 
M40.109474,469.203705 
	C41.845016,469.469116 43.579941,469.960632 45.316196,469.965393 
	C65.148094,470.019775 84.980202,470.000000 104.812248,470.000000 
	C107.089645,470.000000 109.367043,470.000000 112.117599,470.000000 
	C112.117599,421.745178 112.117599,374.018005 112.117599,326.000000 
	C132.738525,326.000000 152.892807,326.451752 173.009537,325.779449 
	C181.150818,325.507385 186.444366,327.322449 188.871277,335.400940 
	C189.368835,337.057220 190.676529,338.456909 191.515152,340.025970 
	C201.392731,358.507355 211.234650,377.007782 221.120651,395.484650 
	C233.843857,419.264282 246.660965,442.994110 259.254395,466.842163 
	C260.700714,469.581055 262.436218,470.047943 265.121277,470.039459 
	C287.286285,469.969543 309.451630,470.000000 331.616852,470.000000 
	C334.877777,470.000000 338.138702,470.000000 342.172119,470.000000 
	C313.642242,417.686890 285.454987,366.002014 257.144897,314.091949 
	C258.772308,313.230896 260.280640,312.271515 261.907135,311.597137 
	C278.427246,304.747162 292.183014,294.051208 303.145660,280.157471 
	C317.856720,261.513153 325.218628,239.634399 326.773621,216.212387 
	C327.916595,198.996552 327.470032,181.677216 323.080322,164.638306 
	C314.946259,133.065536 297.007385,109.119560 268.576721,93.281273 
	C245.242615,80.282219 219.584793,75.496620 193.325653,75.174957 
	C143.836273,74.568741 94.334190,75.000015 44.837391,75.000015 
	C43.261532,75.000015 41.685673,75.000023 40.013966,75.000023 
	C40.013966,206.600571 40.013966,337.423279 40.109474,469.203705 
M712.059448,410.253967 
	C712.019226,409.755432 712.086060,409.218658 711.923584,408.763824 
	C703.975708,386.518921 695.953735,364.300323 688.056152,342.037598 
	C677.670898,312.762268 667.365601,283.458527 657.055664,254.156509 
	C646.692322,224.702759 636.388611,195.228012 626.016235,165.777466 
	C615.751221,136.631393 605.366333,107.527130 595.253174,78.328636 
	C594.353577,75.731346 593.372437,74.960693 590.852417,74.965767 
	C563.355347,75.021103 535.857971,75.043694 508.361237,74.932793 
	C505.640533,74.921822 504.748657,76.069557 503.963348,78.352333 
	C500.068146,89.675079 496.008392,100.941132 492.023956,112.233284 
	C481.688049,141.526138 471.361176,170.822189 461.030731,200.116989 
	C450.700287,229.411743 440.340057,258.696045 430.046967,288.003937 
	C417.181335,324.636658 404.347839,361.280701 391.545471,397.935577 
	C383.969727,419.625916 376.481750,441.346893 368.950989,463.052917 
	C368.208435,465.193146 367.442413,467.325195 366.496979,469.999359 
	C392.063629,469.999359 416.547485,469.959076 441.030792,470.053009 
	C443.924347,470.064087 444.350861,468.412079 445.068024,466.256165 
	C454.981995,436.454956 465.066559,406.710052 474.847107,376.865448 
	C475.902557,373.644867 477.295715,372.939240 480.323151,372.947540 
	C511.486359,373.033081 542.649902,373.000000 573.813354,373.000000 
	C588.811829,373.000000 603.810608,373.047607 618.808533,372.958893 
	C621.720093,372.941681 623.546875,373.244629 624.489563,376.734802 
	C626.257263,383.279358 628.875305,389.590271 631.032593,396.034149 
	C638.792175,419.211975 646.549866,442.390625 654.190247,465.607819 
	C655.259827,468.857910 656.764465,470.143738 660.436829,470.105011 
	C681.099121,469.887146 701.764832,469.999969 722.429382,470.000000 
	C725.884033,470.000031 729.338684,470.000000 733.499634,470.000000 
	C730.179932,460.715027 727.080444,452.069000 723.997253,443.417175 
	C720.142212,432.599365 716.300476,421.776825 712.059448,410.253967 
M1867.500000,409.000000 
	C1827.080688,409.000000 1786.661377,409.000000 1746.357788,409.000000 
	C1746.357788,373.291565 1746.357788,338.234161 1746.357788,302.702911 
	C1803.770630,302.702911 1860.826782,302.702911 1917.754395,302.702911 
	C1917.754395,282.283875 1917.754395,262.342621 1917.754395,241.927292 
	C1860.454956,241.927292 1803.398804,241.927292 1746.307739,241.927292 
	C1746.307739,206.392395 1746.307739,171.335434 1746.307739,135.803711 
	C1808.002930,135.803711 1869.391724,135.803711 1930.628418,135.803711 
	C1930.628418,115.265587 1930.628418,95.205727 1930.628418,75.219543 
	C1844.989746,75.219543 1759.722900,75.219543 1674.236694,75.219543 
	C1674.236694,206.818680 1674.236694,338.198242 1674.236694,469.738831 
	C1760.524658,469.738831 1846.575928,469.738831 1932.703613,469.738831 
	C1932.703613,449.417694 1932.703613,429.359070 1932.703613,409.000000 
	C1911.105591,409.000000 1889.802856,409.000000 1867.500000,409.000000 
M1205.000000,453.497925 
	C1205.000000,327.450348 1205.000000,201.402786 1205.000000,75.296600 
	C1180.739624,75.296600 1157.020020,75.296600 1133.270020,75.296600 
	C1133.270020,206.943634 1133.270020,338.294067 1133.270020,469.703217 
	C1157.260742,469.703217 1180.980347,469.703217 1205.000000,469.703217 
	C1205.000000,464.439606 1205.000000,459.467957 1205.000000,453.497925 
z"/>
<path fill="#F4B431" opacity="1.000000" stroke="none" 
	d="
M1560.292725,414.195251 
	C1545.338501,429.913086 1528.484009,442.433136 1509.096436,451.407562 
	C1494.037354,458.378357 1478.251953,462.899902 1461.949219,466.145874 
	C1441.351074,470.247162 1420.614258,470.024811 1399.826050,470.008423 
	C1362.165161,469.978699 1324.504395,470.000000 1286.843506,470.000000 
	C1285.052246,470.000000 1283.260864,470.000000 1281.238037,470.000000 
	C1281.238037,338.200897 1281.238037,206.821426 1281.238037,75.000008 
	C1283.068481,75.000008 1284.690308,75.000008 1286.312134,75.000008 
	C1332.138306,75.000000 1377.972412,74.482269 1423.788208,75.173157 
	C1457.023682,75.674355 1489.238770,82.149292 1518.700317,98.416176 
	C1537.321899,108.697861 1553.496216,121.977058 1566.719849,139.004379 
	C1585.172119,162.764359 1596.009155,189.555649 1602.154297,218.751984 
	C1607.130005,242.391800 1608.023193,266.271790 1606.790039,290.131012 
	C1605.087402,323.073761 1598.000000,354.949860 1581.377319,383.907410 
	C1575.898560,393.451782 1568.775269,402.051819 1562.413452,411.090240 
	C1561.759888,412.018768 1561.169922,412.991974 1560.292725,414.195251 
M1443.144043,140.058365 
	C1413.589478,136.296967 1383.931763,138.730743 1354.291382,137.910629 
	C1354.291382,227.948517 1354.291382,317.318115 1354.291382,407.000000 
	C1375.711182,407.000000 1396.843628,406.798737 1417.970093,407.067169 
	C1433.360474,407.262756 1448.232666,404.640228 1462.762085,399.938141 
	C1486.186523,392.357513 1504.286865,377.924316 1516.707031,356.639832 
	C1528.440430,336.532318 1533.516846,314.273865 1534.695557,291.444763 
	C1535.569824,274.510864 1534.088379,257.405273 1532.903809,240.428680 
	C1531.623413,222.079483 1526.027954,204.843338 1516.946777,188.824081 
	C1510.770508,177.929001 1502.687378,168.672913 1492.779419,160.924301 
	C1478.334106,149.626984 1461.722534,143.694351 1443.144043,140.058365 
z"/>
<path fill="#F4B431" opacity="1.000000" stroke="none" 
	d="
M40.061722,468.724854 
	C40.013966,337.423279 40.013966,206.600571 40.013966,75.000023 
	C41.685673,75.000023 43.261532,75.000015 44.837391,75.000015 
	C94.334190,75.000015 143.836273,74.568741 193.325653,75.174957 
	C219.584793,75.496620 245.242615,80.282219 268.576721,93.281273 
	C297.007385,109.119560 314.946259,133.065536 323.080322,164.638306 
	C327.470032,181.677216 327.916595,198.996552 326.773621,216.212387 
	C325.218628,239.634399 317.856720,261.513153 303.145660,280.157471 
	C292.183014,294.051208 278.427246,304.747162 261.907135,311.597137 
	C260.280640,312.271515 258.772308,313.230896 257.144897,314.091949 
	C285.454987,366.002014 313.642242,417.686890 342.172119,470.000000 
	C338.138702,470.000000 334.877777,470.000000 331.616852,470.000000 
	C309.451630,470.000000 287.286285,469.969543 265.121277,470.039459 
	C262.436218,470.047943 260.700714,469.581055 259.254395,466.842163 
	C246.660965,442.994110 233.843857,419.264282 221.120651,395.484650 
	C211.234650,377.007782 201.392731,358.507355 191.515152,340.025970 
	C190.676529,338.456909 189.368835,337.057220 188.871277,335.400940 
	C186.444366,327.322449 181.150818,325.507385 173.009537,325.779449 
	C152.892807,326.451752 132.738525,326.000000 112.117599,326.000000 
	C112.117599,374.018005 112.117599,421.745178 112.117599,470.000000 
	C109.367043,470.000000 107.089645,470.000000 104.812248,470.000000 
	C84.980202,470.000000 65.148094,470.019775 45.316196,469.965393 
	C43.579941,469.960632 41.845016,469.469116 40.061722,468.724854 
M211.642502,140.926910 
	C202.879684,139.284607 194.150681,136.482407 185.347458,136.225616 
	C162.376205,135.555527 139.372437,135.995285 116.381645,136.011566 
	C114.959770,136.012573 113.538010,136.179321 112.394173,136.251419 
	C112.394173,179.794113 112.394173,222.841934 112.394173,266.000000 
	C133.111664,266.000000 153.435883,266.103607 173.758392,265.962555 
	C186.704529,265.872711 199.520584,264.911469 212.089355,261.127167 
	C230.792130,255.495987 244.309418,244.795105 250.180588,225.508484 
	C253.820053,213.552963 254.704727,201.379929 252.783936,189.199005 
	C251.663971,182.096664 249.748932,174.785416 246.516235,168.418869 
	C239.394455,154.393112 227.614487,145.415497 211.642502,140.926910 
z"/>
<path fill="#F4B431" opacity="1.000000" stroke="none" 
	d="
M712.256226,410.605164 
	C716.300476,421.776825 720.142212,432.599365 723.997253,443.417175 
	C727.080444,452.069000 730.179932,460.715027 733.499634,470.000000 
	C729.338684,470.000000 725.884033,470.000031 722.429382,470.000000 
	C701.764832,469.999969 681.099121,469.887146 660.436829,470.105011 
	C656.764465,470.143738 655.259827,468.857910 654.190247,465.607819 
	C646.549866,442.390625 638.792175,419.211975 631.032593,396.034149 
	C628.875305,389.590271 626.257263,383.279358 624.489563,376.734802 
	C623.546875,373.244629 621.720093,372.941681 618.808533,372.958893 
	C603.810608,373.047607 588.811829,373.000000 573.813354,373.000000 
	C542.649902,373.000000 511.486359,373.033081 480.323151,372.947540 
	C477.295715,372.939240 475.902557,373.644867 474.847107,376.865448 
	C465.066559,406.710052 454.981995,436.454956 445.068024,466.256165 
	C444.350861,468.412079 443.924347,470.064087 441.030792,470.053009 
	C416.547485,469.959076 392.063629,469.999359 366.496979,469.999359 
	C367.442413,467.325195 368.208435,465.193146 368.950989,463.052917 
	C376.481750,441.346893 383.969727,419.625916 391.545471,397.935577 
	C404.347839,361.280701 417.181335,324.636658 430.046967,288.003937 
	C440.340057,258.696045 450.700287,229.411743 461.030731,200.116989 
	C471.361176,170.822189 481.688049,141.526138 492.023956,112.233284 
	C496.008392,100.941132 500.068146,89.675079 503.963348,78.352333 
	C504.748657,76.069557 505.640533,74.921822 508.361237,74.932793 
	C535.857971,75.043694 563.355347,75.021103 590.852417,74.965767 
	C593.372437,74.960693 594.353577,75.731346 595.253174,78.328636 
	C605.366333,107.527130 615.751221,136.631393 626.016235,165.777466 
	C636.388611,195.228012 646.692322,224.702759 657.055664,254.156509 
	C667.365601,283.458527 677.670898,312.762268 688.056152,342.037598 
	C695.953735,364.300323 703.975708,386.518921 711.923584,408.763824 
	C712.086060,409.218658 712.019226,409.755432 712.256226,410.605164 
M600.066040,304.307739 
	C594.383667,287.447296 588.663391,270.599518 583.028076,253.723358 
	C574.983948,229.633392 567.013062,205.518982 558.987427,181.422806 
	C556.257263,173.225677 553.456543,165.052032 550.688110,156.867645 
	C550.065796,156.814148 549.443481,156.760651 548.821167,156.707138 
	C531.186829,209.291794 513.552490,261.876465 495.807343,314.791443 
	C532.011230,314.791443 567.742004,314.791443 603.669312,314.791443 
	C602.592957,311.468872 601.544495,308.232513 600.066040,304.307739 
z"/>
<path fill="#F4B431" opacity="1.000000" stroke="none" 
	d="
M1868.000000,409.000000 
	C1889.802856,409.000000 1911.105591,409.000000 1932.703613,409.000000 
	C1932.703613,429.359070 1932.703613,449.417694 1932.703613,469.738831 
	C1846.575928,469.738831 1760.524658,469.738831 1674.236694,469.738831 
	C1674.236694,338.198242 1674.236694,206.818680 1674.236694,75.219543 
	C1759.722900,75.219543 1844.989746,75.219543 1930.628418,75.219543 
	C1930.628418,95.205727 1930.628418,115.265587 1930.628418,135.803711 
	C1869.391724,135.803711 1808.002930,135.803711 1746.307739,135.803711 
	C1746.307739,171.335434 1746.307739,206.392395 1746.307739,241.927292 
	C1803.398804,241.927292 1860.454956,241.927292 1917.754395,241.927292 
	C1917.754395,262.342621 1917.754395,282.283875 1917.754395,302.702911 
	C1860.826782,302.702911 1803.770630,302.702911 1746.357788,302.702911 
	C1746.357788,338.234161 1746.357788,373.291565 1746.357788,409.000000 
	C1786.661377,409.000000 1827.080688,409.000000 1868.000000,409.000000 
z"/>
<path fill="#F4B431" opacity="1.000000" stroke="none" 
	d="
M1037.042480,299.114441 
	C1025.570679,311.039001 1011.857910,319.616089 996.590698,325.707977 
	C982.028931,331.518433 966.941223,335.558899 951.202209,335.924194 
	C924.813538,336.536652 898.413879,336.676270 872.018494,336.991760 
	C867.025452,337.051453 862.031006,337.003632 856.205566,337.096008 
	C851.515015,338.425629 852.010498,341.667145 852.009521,344.624298 
	C851.995789,386.360657 851.999878,428.096985 851.999634,469.833344 
	C829.969849,469.881683 807.940002,469.930054 785.326538,469.752747 
	C784.571594,469.331940 784.379456,469.159943 784.166626,469.011108 
	C784.111145,468.015961 784.007141,467.020813 784.007141,466.025665 
	C784.006958,337.326355 784.014465,208.627029 784.552185,79.463943 
	C791.080566,79.000122 797.078674,78.964218 803.076172,79.005676 
	C849.697144,79.327911 896.321228,79.436882 942.937439,80.096703 
	C965.254272,80.412575 986.326050,86.379776 1005.996704,97.009857 
	C1031.070312,110.559753 1048.569214,130.843140 1058.578613,157.416031 
	C1067.922119,182.221207 1070.032104,207.903137 1065.814087,233.991562 
	C1063.386963,249.003143 1059.099365,263.515961 1051.213745,276.752533 
	C1048.014893,282.122070 1045.091309,287.655579 1042.042480,293.114441 
	C1042.026855,293.462616 1041.871216,293.729034 1040.992310,294.042358 
	C1039.286865,295.818848 1038.164673,297.466644 1037.042480,299.114441 
M997.638550,217.846939 
	C997.720398,217.217560 997.802246,216.588181 997.985046,215.032059 
	C997.656860,207.944717 997.515869,200.842651 996.959412,193.773285 
	C995.964111,181.130188 991.432495,169.745178 983.403137,159.968811 
	C969.638123,143.209000 950.559814,137.084885 930.045410,136.242157 
	C905.440674,135.231369 880.761597,136.028137 855.373718,136.186188 
	C851.504456,137.429886 852.010864,140.681900 852.009888,143.642624 
	C851.996033,187.298660 852.077087,230.955032 851.896912,274.610321 
	C851.875916,279.700348 853.424377,281.153015 858.446655,281.103546 
	C882.105225,280.870453 905.781921,281.519745 929.424500,280.860992 
	C955.643982,280.130432 977.476868,270.404694 990.355957,246.131927 
	C993.268799,240.642136 994.096436,234.045929 995.985229,227.220810 
	C996.045715,226.480606 996.106201,225.740387 996.638550,224.846939 
	C996.720398,224.217560 996.802246,223.588181 996.984924,222.135345 
	C997.045471,220.756958 997.106079,219.378571 997.638550,217.846939 
z"/>
<path fill="#F4B431" opacity="1.000000" stroke="none" 
	d="
M2196.887207,136.956055 
	C2195.068115,136.637375 2193.249268,136.041626 2191.429932,136.040085 
	C2126.590088,135.985016 2061.750244,135.985580 1996.326782,135.752808 
	C1995.571777,135.332047 1995.379639,135.160126 1995.166504,135.011475 
	C1995.118164,116.650215 1995.069824,98.288963 1995.552124,79.463943 
	C2089.546143,79.000206 2183.009766,79.033005 2276.472900,78.907837 
	C2281.379395,78.901268 2283.278809,80.093315 2283.110352,85.309952 
	C2282.749756,96.460602 2283.139893,107.634117 2282.890381,118.790817 
	C2282.835449,121.247467 2281.883301,123.992188 2280.518066,126.058281 
	C2274.463135,135.222244 2268.120605,144.196701 2261.857666,153.222733 
	C2245.062256,177.427200 2228.284180,201.643875 2211.444336,225.817383 
	C2183.950439,265.284515 2156.412109,304.720703 2128.894043,344.171051 
	C2114.706543,364.510620 2100.490723,384.830688 2086.387695,405.228851 
	C2085.062988,407.145111 2084.459229,409.560150 2083.520752,411.743530 
	C2085.711670,412.162323 2087.894043,412.636322 2090.097412,412.974640 
	C2091.073975,413.124542 2092.092773,413.000000 2093.092285,413.000000 
	C2154.568359,413.000092 2216.044434,413.051727 2277.520020,412.903320 
	C2282.489990,412.891296 2284.198975,414.209625 2284.109619,419.355011 
	C2283.816895,436.176666 2283.999512,453.006592 2283.999512,469.833374 
	C2283.004639,469.888824 2282.010010,469.992859 2281.015137,469.992859 
	C2186.646973,469.993134 2092.278809,469.985504 1997.326782,469.752808 
	C1996.571533,469.332092 1996.379395,469.160034 1996.166626,469.011078 
	C1996.118286,454.983154 1996.069946,440.955261 1996.404785,426.350342 
	C1997.652466,425.007690 1998.705933,424.374939 1999.352661,423.456055 
	C2006.695557,413.024445 2013.990845,402.559326 2021.269775,392.082947 
	C2032.618652,375.748779 2043.914917,359.377869 2055.288818,343.061218 
	C2069.404053,322.812042 2083.596191,302.616547 2097.716064,282.370544 
	C2106.629395,269.589722 2115.431641,256.730927 2124.355225,243.957199 
	C2137.729492,224.812210 2151.166748,205.711121 2164.577637,186.591644 
	C2174.760986,172.073944 2184.998535,157.593536 2195.054199,142.987885 
	C2196.189697,141.338455 2196.301025,138.983765 2196.887207,136.956055 
z"/>
<path fill="#F4B431" opacity="1.000000" stroke="none" 
	d="
M1205.000000,453.997101 
	C1205.000000,459.467957 1205.000000,464.439606 1205.000000,469.703217 
	C1180.980347,469.703217 1157.260742,469.703217 1133.270020,469.703217 
	C1133.270020,338.294067 1133.270020,206.943634 1133.270020,75.296600 
	C1157.020020,75.296600 1180.739624,75.296600 1205.000000,75.296600 
	C1205.000000,201.402786 1205.000000,327.450348 1205.000000,453.997101 
z"/>
<path fill="#F4B431" opacity="1.000000" stroke="none" 
	d="
M2284.437012,469.905640 
	C2283.999512,453.006592 2283.816895,436.176666 2284.109619,419.355011 
	C2284.198975,414.209625 2282.489990,412.891296 2277.520020,412.903320 
	C2216.044434,413.051727 2154.568359,413.000092 2093.092285,413.000000 
	C2092.092773,413.000000 2091.073975,413.124542 2090.097412,412.974640 
	C2087.894043,412.636322 2085.711670,412.162323 2083.520752,411.743530 
	C2084.459229,409.560150 2085.062988,407.145111 2086.387695,405.228851 
	C2100.490723,384.830688 2114.706543,364.510620 2128.894043,344.171051 
	C2156.412109,304.720703 2183.950439,265.284515 2211.444336,225.817383 
	C2228.284180,201.643875 2245.062256,177.427200 2261.857666,153.222733 
	C2268.120605,144.196701 2274.463135,135.222244 2280.518066,126.058281 
	C2281.883301,123.992188 2282.835449,121.247467 2282.890381,118.790817 
	C2283.139893,107.634117 2282.749756,96.460602 2283.110352,85.309952 
	C2283.278809,80.093315 2281.379395,78.901268 2276.472900,78.907837 
	C2183.009766,79.033005 2089.546143,79.000206 1995.624756,79.000275 
	C1995.166626,77.842003 1995.166626,76.683632 1995.166626,75.262627 
	C2092.249268,75.262627 2189.332520,75.262627 2286.752441,75.262627 
	C2286.835938,76.728935 2286.985352,78.169937 2286.989014,79.611298 
	C2287.010986,88.444321 2286.076416,97.399239 2287.221436,106.081291 
	C2288.846924,118.405029 2283.090332,127.203278 2276.358887,136.311600 
	C2266.895752,149.116547 2258.110107,162.421387 2249.001709,175.489594 
	C2229.016357,204.163742 2208.969971,232.795593 2189.024902,261.497681 
	C2171.868652,286.186707 2154.854492,310.974670 2137.709717,335.671661 
	C2122.507080,357.570984 2107.218262,379.410400 2091.946045,401.261169 
	C2090.306641,403.606628 2088.522705,405.851105 2086.163330,409.000000 
	C2089.007812,409.000000 2090.760742,409.000000 2092.513672,409.000000 
	C2155.678467,409.000000 2218.843750,409.055389 2282.008057,408.892181 
	C2286.927979,408.879486 2288.177490,410.361359 2288.103760,415.106079 
	C2287.839355,432.101471 2287.986084,449.103516 2288.017090,466.102966 
	C2288.021240,468.338287 2288.348877,470.648285 2284.437012,469.905640 
z"/>
<path fill="#F4B431" opacity="1.000000" stroke="none" 
	d="
M1042.356812,292.975555 
	C1045.091309,287.655579 1048.014893,282.122070 1051.213745,276.752533 
	C1059.099365,263.515961 1063.386963,249.003143 1065.814087,233.991562 
	C1070.032104,207.903137 1067.922119,182.221207 1058.578613,157.416031 
	C1048.569214,130.843140 1031.070312,110.559753 1005.996704,97.009857 
	C986.326050,86.379776 965.254272,80.412575 942.937439,80.096703 
	C896.321228,79.436882 849.697144,79.327911 803.076172,79.005676 
	C797.078674,78.964218 791.080566,79.000122 784.624695,79.000275 
	C784.166626,77.843193 784.166626,76.686005 784.166626,75.000008 
	C785.775208,75.000008 787.388611,75.000008 789.001953,75.000008 
	C838.282715,75.000000 887.567932,74.601830 936.842407,75.157616 
	C963.992676,75.463844 990.312378,80.895470 1013.953857,95.083405 
	C1039.183350,110.224426 1056.133911,132.144272 1065.001343,160.283936 
	C1070.199707,176.780548 1072.399536,193.760376 1071.847290,210.908875 
	C1071.189209,231.345459 1067.573486,251.403549 1057.894775,269.703461 
	C1053.598633,277.826233 1047.792114,285.150146 1042.356812,292.975555 
z"/>
<path fill="#F4B431" opacity="1.000000" stroke="none" 
	d="
M2196.572266,137.092743 
	C2196.301025,138.983765 2196.189697,141.338455 2195.054199,142.987885 
	C2184.998535,157.593536 2174.760986,172.073944 2164.577637,186.591644 
	C2151.166748,205.711121 2137.729492,224.812210 2124.355225,243.957199 
	C2115.431641,256.730927 2106.629395,269.589722 2097.716064,282.370544 
	C2083.596191,302.616547 2069.404053,322.812042 2055.288818,343.061218 
	C2043.914917,359.377869 2032.618652,375.748779 2021.269775,392.082947 
	C2013.990845,402.559326 2006.695557,413.024445 1999.352661,423.456055 
	C1998.705933,424.374939 1997.652466,425.007690 1996.477295,425.886658 
	C1997.793213,422.902924 1999.124634,419.602631 2001.094360,416.741791 
	C2014.093628,397.860657 2027.183472,379.041382 2040.333252,360.264557 
	C2059.269043,333.225891 2078.354736,306.291870 2097.239746,279.218018 
	C2116.021729,252.292084 2134.613770,225.233948 2153.329102,198.261444 
	C2166.208496,179.700012 2179.147705,161.180191 2192.084229,142.658630 
	C2193.389893,140.789246 2194.862305,139.036392 2196.572266,137.092743 
z"/>
<path fill="#F4B431" opacity="1.000000" stroke="none" 
	d="
M852.437134,469.905640 
	C851.999878,428.096985 851.995789,386.360657 852.009521,344.624298 
	C852.010498,341.667145 851.515015,338.425629 855.744385,337.114319 
	C856.076599,379.902832 856.043030,422.763611 855.985657,465.624390 
	C855.982788,467.741791 856.897156,470.666534 852.437134,469.905640 
z"/>
<path fill="#F4B431" opacity="1.000000" stroke="none" 
	d="
M1037.352417,298.979340 
	C1038.164673,297.466644 1039.286865,295.818848 1040.761963,294.106567 
	C1039.964111,295.642792 1038.813232,297.243500 1037.352417,298.979340 
z"/>
<path fill="#F4B431" opacity="1.000000" stroke="none" 
	d="
M1995.131348,135.269775 
	C1995.379639,135.160126 1995.571777,135.332047 1995.861816,135.680267 
	C1995.685791,135.731583 1995.390991,135.629837 1995.131348,135.269775 
z"/>
<path fill="#F4B431" opacity="1.000000" stroke="none" 
	d="
M784.131348,469.269470 
	C784.379456,469.159943 784.571594,469.331940 784.861694,469.680237 
	C784.685608,469.731506 784.390808,469.629669 784.131348,469.269470 
z"/>
<path fill="#F4B431" opacity="1.000000" stroke="none" 
	d="
M1996.131348,469.269470 
	C1996.379395,469.160034 1996.571533,469.332092 1996.861816,469.680267 
	C1996.685791,469.731506 1996.390869,469.629669 1996.131348,469.269470 
z"/>
<path fill="#000000" opacity="1.000000" stroke="none" 
	d="
M1443.545166,140.250061 
	C1461.722534,143.694351 1478.334106,149.626984 1492.779419,160.924301 
	C1502.687378,168.672913 1510.770508,177.929001 1516.946777,188.824081 
	C1526.027954,204.843338 1531.623413,222.079483 1532.903809,240.428680 
	C1534.088379,257.405273 1535.569824,274.510864 1534.695557,291.444763 
	C1533.516846,314.273865 1528.440430,336.532318 1516.707031,356.639832 
	C1504.286865,377.924316 1486.186523,392.357513 1462.762085,399.938141 
	C1448.232666,404.640228 1433.360474,407.262756 1417.970093,407.067169 
	C1396.843628,406.798737 1375.711182,407.000000 1354.291382,407.000000 
	C1354.291382,317.318115 1354.291382,227.948517 1354.291382,137.910629 
	C1383.931763,138.730743 1413.589478,136.296967 1443.545166,140.250061 
z"/>
<path fill="#000000" opacity="1.000000" stroke="none" 
	d="
M212.048904,140.962524 
	C227.614487,145.415497 239.394455,154.393112 246.516235,168.418869 
	C249.748932,174.785416 251.663971,182.096664 252.783936,189.199005 
	C254.704727,201.379929 253.820053,213.552963 250.180588,225.508484 
	C244.309418,244.795105 230.792130,255.495987 212.089355,261.127167 
	C199.520584,264.911469 186.704529,265.872711 173.758392,265.962555 
	C153.435883,266.103607 133.111664,266.000000 112.394173,266.000000 
	C112.394173,222.841934 112.394173,179.794113 112.394173,136.251419 
	C113.538010,136.179321 114.959770,136.012573 116.381645,136.011566 
	C139.372437,135.995285 162.376205,135.555527 185.347458,136.225616 
	C194.150681,136.482407 202.879684,139.284607 212.048904,140.962524 
z"/>
<path fill="#000000" opacity="1.000000" stroke="none" 
	d="
M600.281006,304.651947 
	C601.544495,308.232513 602.592957,311.468872 603.669312,314.791443 
	C567.742004,314.791443 532.011230,314.791443 495.807343,314.791443 
	C513.552490,261.876465 531.186829,209.291794 548.821167,156.707138 
	C549.443481,156.760651 550.065796,156.814148 550.688110,156.867645 
	C553.456543,165.052032 556.257263,173.225677 558.987427,181.422806 
	C567.013062,205.518982 574.983948,229.633392 583.028076,253.723358 
	C588.663391,270.599518 594.383667,287.447296 600.281006,304.651947 
z"/>
<path fill="#000000" opacity="1.000000" stroke="none" 
	d="
M996.166626,225.000183 
	C996.106201,225.740387 996.045715,226.480606 995.605225,227.774384 
	C992.976501,237.585007 989.263794,246.188538 983.000305,253.428741 
	C968.526794,270.159027 949.478943,276.660217 928.023987,276.936584 
	C905.873596,277.221924 883.716736,277.000000 861.562683,277.000000 
	C859.798279,277.000000 858.033875,277.000000 856.423279,277.000000 
	C856.191162,276.075958 856.044983,275.765961 856.045105,275.456055 
	C856.061401,228.984756 856.088318,182.513474 856.114746,136.042175 
	C880.761597,136.028137 905.440674,135.231369 930.045410,136.242157 
	C950.559814,137.084885 969.638123,143.209000 983.403137,159.968811 
	C991.432495,169.745178 995.964111,181.130188 996.959412,193.773285 
	C997.515869,200.842651 997.656860,207.944717 997.648926,215.619843 
	C997.264160,216.805161 997.215393,217.402679 997.166626,218.000183 
	C997.106079,219.378571 997.045471,220.756958 996.648865,222.671494 
	C996.264099,223.805161 996.215332,224.402664 996.166626,225.000183 
z"/>
<path fill="#F4B431" opacity="1.000000" stroke="none" 
	d="
M855.744263,136.114182 
	C856.088318,182.513474 856.061401,228.984756 856.045105,275.456055 
	C856.044983,275.765961 856.191162,276.075958 856.423279,277.000000 
	C858.033875,277.000000 859.798279,277.000000 861.562683,277.000000 
	C883.716736,277.000000 905.873596,277.221924 928.023987,276.936584 
	C949.478943,276.660217 968.526794,270.159027 983.000305,253.428741 
	C989.263794,246.188538 992.976501,237.585007 995.554565,228.143494 
	C994.096436,234.045929 993.268799,240.642136 990.355957,246.131927 
	C977.476868,270.404694 955.643982,280.130432 929.424500,280.860992 
	C905.781921,281.519745 882.105225,280.870453 858.446655,281.103546 
	C853.424377,281.153015 851.875916,279.700348 851.896912,274.610321 
	C852.077087,230.955032 851.996033,187.298660 852.009888,143.642624 
	C852.010864,140.681900 851.504456,137.429886 855.744263,136.114182 
z"/>
<path fill="#F4B431" opacity="1.000000" stroke="none" 
	d="
M997.402588,217.923553 
	C997.215393,217.402679 997.264160,216.805161 997.598511,216.083221 
	C997.802246,216.588181 997.720398,217.217560 997.402588,217.923553 
z"/>
<path fill="#F4B431" opacity="1.000000" stroke="none" 
	d="
M996.402588,224.923553 
	C996.215332,224.402664 996.264099,223.805161 996.598450,223.083221 
	C996.802246,223.588181 996.720398,224.217560 996.402588,224.923553 
z"/>
</svg>